<svg width="109" height="25" viewBox="0 0 109 25" fill="none" xmlns="http://www.w3.org/2000/svg">
<path d="M0.675 18.9C0.477 18.9 0.315 18.837 0.189 18.711C0.0630001 18.585 0 18.423 0 18.225V0.675001C0 0.477 0.0630001 0.315 0.189 0.189001C0.315 0.0630003 0.477 0 0.675 0H7.695C9.459 0 10.962 0.288 12.204 0.864C13.446 1.422 14.4 2.25 15.066 3.348C15.732 4.428 16.092 5.769 16.146 7.371C16.164 8.163 16.173 8.856 16.173 9.45C16.173 10.044 16.164 10.728 16.146 11.502C16.074 13.176 15.714 14.562 15.066 15.66C14.436 16.758 13.509 17.577 12.285 18.117C11.079 18.639 9.594 18.9 7.83 18.9H0.675ZM4.833 15.012H7.695C8.469 15.012 9.108 14.895 9.612 14.661C10.134 14.409 10.521 14.022 10.773 13.5C11.043 12.978 11.187 12.294 11.205 11.448C11.241 10.926 11.259 10.458 11.259 10.044C11.277 9.63 11.277 9.216 11.259 8.802C11.259 8.388 11.241 7.929 11.205 7.425C11.169 6.201 10.845 5.31 10.233 4.752C9.639 4.176 8.748 3.888 7.56 3.888H4.833V15.012Z" fill="white"/>
<path d="M25.1051 19.17C22.9811 19.17 21.2891 18.594 20.0291 17.442C18.7691 16.29 18.1121 14.58 18.0581 12.312C18.0581 12.186 18.0581 12.024 18.0581 11.826C18.0581 11.628 18.0581 11.475 18.0581 11.367C18.1121 9.945 18.4271 8.73 19.0031 7.722C19.5971 6.696 20.4071 5.922 21.4331 5.4C22.4771 4.86 23.6921 4.59 25.0781 4.59C26.6621 4.59 27.9671 4.905 28.9931 5.535C30.0371 6.165 30.8201 7.02 31.3421 8.1C31.8641 9.18 32.1251 10.413 32.1251 11.799V12.447C32.1251 12.645 32.0531 12.807 31.9091 12.933C31.7831 13.059 31.6301 13.122 31.4501 13.122H22.8101C22.8101 13.14 22.8101 13.167 22.8101 13.203C22.8101 13.239 22.8101 13.275 22.8101 13.311C22.8281 13.833 22.9181 14.31 23.0801 14.742C23.2421 15.174 23.4941 15.516 23.8361 15.768C24.1781 16.02 24.5921 16.146 25.0781 16.146C25.4381 16.146 25.7351 16.092 25.9691 15.984C26.2211 15.858 26.4281 15.723 26.5901 15.579C26.7521 15.417 26.8781 15.282 26.9681 15.174C27.1301 14.994 27.2561 14.886 27.3461 14.85C27.4541 14.796 27.6161 14.769 27.8321 14.769H31.1801C31.3601 14.769 31.5041 14.823 31.6121 14.931C31.7381 15.021 31.7921 15.156 31.7741 15.336C31.7561 15.642 31.6031 16.011 31.3151 16.443C31.0271 16.875 30.6041 17.307 30.0461 17.739C29.5061 18.153 28.8221 18.495 27.9941 18.765C27.1661 19.035 26.2031 19.17 25.1051 19.17ZM22.8101 10.449H27.3731V10.395C27.3731 9.819 27.2831 9.315 27.1031 8.883C26.9411 8.451 26.6801 8.118 26.3201 7.884C25.9781 7.65 25.5641 7.533 25.0781 7.533C24.5921 7.533 24.1781 7.65 23.8361 7.884C23.5121 8.118 23.2601 8.451 23.0801 8.883C22.9001 9.315 22.8101 9.819 22.8101 10.395V10.449Z" fill="white"/>
<path d="M36.264 24.03C36.102 24.03 35.967 23.976 35.859 23.868C35.7509 23.76 35.697 23.625 35.697 23.463C35.697 23.427 35.697 23.373 35.697 23.301C35.715 23.247 35.742 23.184 35.778 23.112L37.884 18.036L32.7 5.778C32.646 5.652 32.6189 5.544 32.6189 5.454C32.6549 5.292 32.727 5.157 32.835 5.049C32.943 4.923 33.078 4.86 33.24 4.86H36.318C36.552 4.86 36.7229 4.923 36.831 5.049C36.957 5.157 37.038 5.283 37.074 5.427L40.179 13.284L43.338 5.427C43.41 5.283 43.5 5.157 43.608 5.049C43.734 4.923 43.914 4.86 44.148 4.86H47.172C47.334 4.86 47.469 4.923 47.577 5.049C47.703 5.157 47.766 5.283 47.766 5.427C47.766 5.517 47.739 5.634 47.685 5.778L40.044 23.463C39.99 23.607 39.9 23.733 39.774 23.841C39.648 23.967 39.468 24.03 39.234 24.03H36.264Z" fill="white"/>
<path d="M50.0253 23.9C49.8273 23.9 49.6653 23.836 49.5393 23.71C49.4133 23.584 49.3503 23.428 49.3503 23.23V5.535C49.3503 5.337 49.4133 5.175 49.5393 5.049C49.6653 4.923 49.8273 4.86 50.0253 4.86H53.1303C53.3283 4.86 53.4903 4.923 53.6163 5.049C53.7423 5.175 53.8053 5.337 53.8053 5.535V6.561C54.2733 6.003 54.8853 5.535 55.6413 5.157C56.3973 4.779 57.2883 4.59 58.3143 4.59C59.3583 4.59 60.2763 4.824 61.0683 5.292C61.8783 5.76 62.5083 6.453 62.9583 7.371C63.4263 8.271 63.6603 9.378 63.6603 10.692V18.225C63.6603 18.423 63.5883 18.585 63.4443 18.711C63.3183 18.837 63.1653 18.9 62.9853 18.9H59.5833C59.4033 18.9 59.2413 18.837 59.0973 18.711C58.9713 18.585 58.9083 18.423 58.9083 18.225V10.854C58.9083 10.008 58.7013 9.36 58.2873 8.91C57.8913 8.442 57.2973 8.208 56.5053 8.208C55.7673 8.208 55.1733 8.442 54.7233 8.91C54.2913 9.36 54.0753 10.008 54.0753 10.854V23.23C54.0753 23.428 54.0033 23.584 53.8593 23.71C53.7333 23.836 53.5803 23.9 53.4003 23.9H50.0253Z" fill="white"/>
<path d="M72.7485 19.17C70.6245 19.17 68.9325 18.594 67.6725 17.442C66.4125 16.29 65.7555 14.58 65.7015 12.312C65.7015 12.186 65.7015 12.024 65.7015 11.826C65.7015 11.628 65.7015 11.475 65.7015 11.367C65.7555 9.945 66.0705 8.73 66.6465 7.722C67.2405 6.696 68.0505 5.922 69.0765 5.4C70.1205 4.86 71.3355 4.59 72.7215 4.59C74.3055 4.59 75.6105 4.905 76.6365 5.535C77.6805 6.165 78.4635 7.02 78.9855 8.1C79.5075 9.18 79.7685 10.413 79.7685 11.799V12.447C79.7685 12.645 79.6965 12.807 79.5525 12.933C79.4265 13.059 79.2735 13.122 79.0935 13.122H70.4535C70.4535 13.14 70.4535 13.167 70.4535 13.203C70.4535 13.239 70.4535 13.275 70.4535 13.311C70.4715 13.833 70.5615 14.31 70.7235 14.742C70.8855 15.174 71.1375 15.516 71.4795 15.768C71.8215 16.02 72.2355 16.146 72.7215 16.146C73.0815 16.146 73.3785 16.092 73.6125 15.984C73.8645 15.858 74.0715 15.723 74.2335 15.579C74.3955 15.417 74.5215 15.282 74.6115 15.174C74.7735 14.994 74.8995 14.886 74.9895 14.85C75.0975 14.796 75.2595 14.769 75.4755 14.769H78.8235C79.0035 14.769 79.1475 14.823 79.2555 14.931C79.3815 15.021 79.4355 15.156 79.4175 15.336C79.3995 15.642 79.2465 16.011 78.9585 16.443C78.6705 16.875 78.2475 17.307 77.6895 17.739C77.1495 18.153 76.4655 18.495 75.6375 18.765C74.8095 19.035 73.8465 19.17 72.7485 19.17ZM70.4535 10.449H75.0165V10.395C75.0165 9.819 74.9265 9.315 74.7465 8.883C74.5845 8.451 74.3235 8.118 73.9635 7.884C73.6215 7.65 73.2075 7.533 72.7215 7.533C72.2355 7.533 71.8215 7.65 71.4795 7.884C71.1555 8.118 70.9035 8.451 70.7235 8.883C70.5435 9.315 70.4535 9.819 70.4535 10.395V10.449Z" fill="white"/>
<path d="M82.5698 23.9C82.3718 23.9 82.2098 23.836 82.0838 23.71C81.9578 23.584 81.8948 23.428 81.8948 23.23V5.535C81.8948 5.355 81.9578 5.202 82.0838 5.076C82.2098 4.932 82.3718 4.86 82.5698 4.86H85.6748C85.8728 4.86 86.0348 4.932 86.1608 5.076C86.2868 5.202 86.3498 5.355 86.3498 5.535V6.615C86.8358 6.057 87.4118 5.625 88.0778 5.319C88.7618 5.013 89.5268 4.86 90.3728 4.86H91.5608C91.7408 4.86 91.8938 4.923 92.0198 5.049C92.1638 5.175 92.2358 5.337 92.2358 5.535V8.316C92.2358 8.496 92.1638 8.658 92.0198 8.802C91.8938 8.928 91.7408 8.991 91.5608 8.991H88.9418C88.2038 8.991 87.6278 9.198 87.2138 9.612C86.8178 10.008 86.6198 10.575 86.6198 11.313V23.23C86.6198 23.428 86.5478 23.584 86.4038 23.71C86.2778 23.836 86.1158 23.9 85.9178 23.9H82.5698Z" fill="white"/>
<path d="M92.8667 18.9C92.6687 18.9 92.5067 18.837 92.3807 18.711C92.2547 18.585 92.1917 18.423 92.1917 18.225V14.796C92.1917 14.616 92.2547 14.463 92.3807 14.337C92.5067 14.193 92.6687 14.121 92.8667 14.121H96.2687C96.4667 14.121 96.6287 14.193 96.7547 14.337C96.8987 14.463 96.9707 14.616 96.9707 14.796V18.225C96.9707 18.423 96.8987 18.585 96.7547 18.711C96.6287 18.837 96.4667 18.9 96.2687 18.9H92.8667Z" fill="white"/>
<path d="M99.5564 12.744C99.3584 12.744 99.1964 12.681 99.0704 12.555C98.9444 12.429 98.8814 12.267 98.8814 12.069V9.531C98.8814 9.333 98.9444 9.171 99.0704 9.045C99.1964 8.919 99.3584 8.856 99.5564 8.856H108.007C108.205 8.856 108.367 8.919 108.493 9.045C108.619 9.171 108.682 9.333 108.682 9.531V12.069C108.682 12.267 108.619 12.429 108.493 12.555C108.367 12.681 108.205 12.744 108.007 12.744H99.5564Z" fill="white"/>
</svg>
